<svg width="22" height="17" viewBox="0 0 22 17" fill="none" xmlns="http://www.w3.org/2000/svg">
<path d="M17.1317 10.4555C14.4824 10.4555 12.3348 8.11492 12.3348 5.22773C12.3348 2.34053 14.4824 0 17.1317 0C19.7809 0 21.9285 2.34053 21.9285 5.22773L21.9505 5.97454C21.9505 11.7489 17.6552 16.43 12.3567 16.43V13.4427C14.1878 13.4427 15.9078 12.666 17.2029 11.256C17.4524 10.9842 17.6799 10.6959 17.8841 10.3927C17.6388 10.4345 17.388 10.4569 17.1317 10.4569V10.4555ZM4.79687 10.4555C2.14763 10.4555 0 8.11492 0 5.22773C0 2.34053 2.14763 0 4.79687 0C7.44611 0 9.59374 2.34053 9.59374 5.22773L9.61567 5.97454C9.61567 11.7489 5.32041 16.43 0.0219285 16.43V13.4427C1.85296 13.4427 3.57298 12.666 4.86814 11.256C5.11757 10.9842 5.34508 10.6959 5.54929 10.3927C5.30397 10.4345 5.05316 10.4569 4.79687 10.4569V10.4555Z" fill="#3BAC62"/>
</svg>
