<svg xmlns="http://www.w3.org/2000/svg" width="105.937" height="99.601" viewBox="0 0 105.937 99.601"><g transform="translate(0)"><path d="M291.11,366.419c-27.84-16.494-30.884-30.5-30.884-30.5.031.163.065.324.1.486h-.2c.034-.162.067-.323.1-.486,0,0-3.044,14.01-30.885,30.5-20.738,12.286-32.255,25.6-9.983,45.452,0,0-12.817-15.023-6.751-26.107,4.664-8.523,16.581-13.9,27.843-23.189v3.138a.395.395,0,0,0-.179.689,1.589,1.589,0,0,1-.162.2,2.212,2.212,0,0,1-.453.288,4.431,4.431,0,0,0-1.46,1.136,1.285,1.285,0,0,0-.293,1.056,2.567,2.567,0,0,0,0,4.58,1.286,1.286,0,0,0,.293,1.057,4.415,4.415,0,0,0,1.46,1.136,2.234,2.234,0,0,1,.453.288,1.586,1.586,0,0,1,.162.2.4.4,0,0,0-.14.3.4.4,0,1,0,.8,0,.4.4,0,0,0-.14-.3,1.6,1.6,0,0,1,.162-.2,2.216,2.216,0,0,1,.453-.288,4.42,4.42,0,0,0,1.459-1.136,1.286,1.286,0,0,0,.294-1.057,2.567,2.567,0,0,0,0-4.58,1.285,1.285,0,0,0-.294-1.056,4.436,4.436,0,0,0-1.459-1.136,2.194,2.194,0,0,1-.453-.288,1.6,1.6,0,0,1-.162-.2.395.395,0,0,0-.179-.689V362.44c1.513-1.254,3.015-2.576,4.485-3.99,10.827-10.416,13.694-15.742,15.008-21.943v13.34a.579.579,0,0,0,0,1.133v.863a.877.877,0,0,0,0,1.733v.862a.58.58,0,0,0,0,1.133v3.572a.75.75,0,0,0-.059,1.463,4.115,4.115,0,0,1-.435.672c-.565.721-2.553,1.386-3.938,3.525a3.209,3.209,0,0,0,.1,3.806h-.936v1.022h.787v5.756h-.787v1.022h.641c.059.113.122.227.2.343,1.385,2.139,3.373,2.8,3.938,3.525a4.145,4.145,0,0,1,.413.63.748.748,0,0,0,.142,1.462v1.179a.446.446,0,0,0,0,.882v.978l-.312.779.389.973.389-.973-.311-.779v-.978a.446.446,0,0,0,0-.882v-1.179a.748.748,0,0,0,.141-1.462,4.145,4.145,0,0,1,.413-.63c.565-.721,2.553-1.386,3.939-3.525.075-.116.138-.23.2-.343h.641v-1.022h-.787v-5.756h.787v-1.022h-.936a3.21,3.21,0,0,0,.1-3.806c-1.386-2.139-3.373-2.8-3.939-3.525a4.115,4.115,0,0,1-.435-.672.749.749,0,0,0-.092-1.466v-3.562a.58.58,0,0,0,0-1.146v-.853a.875.875,0,0,0,0-1.739v-.852a.58.58,0,0,0,0-1.147V336.506c1.314,6.2,4.181,11.528,15.008,21.944,1.323,1.272,2.672,2.47,4.032,3.611v5.455a.481.481,0,0,0-.219.841,1.957,1.957,0,0,1-.2.242,2.68,2.68,0,0,1-.552.351,5.4,5.4,0,0,0-1.78,1.386,1.568,1.568,0,0,0-.358,1.289,3.132,3.132,0,0,0,0,5.586,1.568,1.568,0,0,0,.358,1.289,5.4,5.4,0,0,0,1.78,1.385,2.7,2.7,0,0,1,.552.352,1.962,1.962,0,0,1,.2.242.489.489,0,1,0,.635,0,1.911,1.911,0,0,1,.2-.242,2.685,2.685,0,0,1,.552-.352,5.4,5.4,0,0,0,1.78-1.385,1.568,1.568,0,0,0,.358-1.289,3.132,3.132,0,0,0,0-5.586,1.568,1.568,0,0,0-.358-1.289,5.4,5.4,0,0,0-1.78-1.386A2.66,2.66,0,0,1,280,368.6a1.906,1.906,0,0,1-.2-.242.481.481,0,0,0-.219-.841v-5.29c11.385,9.5,23.539,14.91,28.261,23.538,6.066,11.084-6.751,26.107-6.751,26.107C323.365,392.016,311.847,378.706,291.11,366.419Zm-50.5-.323a.077.077,0,0,1-.066.076l-.012,0-.011,0a.077.077,0,0,1-.066-.076.078.078,0,0,1,.156,0Zm-.078,10.626a.078.078,0,0,1-.078-.078.077.077,0,0,1,.066-.076l.011,0,.012,0a.077.077,0,0,1,.066.076A.078.078,0,0,1,240.532,376.723Zm.719-9.552a4.164,4.164,0,0,1,1.361,1.052.953.953,0,0,1,.208.888l-.036.12.107.065a2.27,2.27,0,0,1,0,4.151l-.107.065.036.12a.952.952,0,0,1-.208.888,4.148,4.148,0,0,1-1.361,1.052,2.3,2.3,0,0,0-.532.349,1.991,1.991,0,0,0-.188.23,1.917,1.917,0,0,0-.187-.23,2.3,2.3,0,0,0-.532-.349,4.153,4.153,0,0,1-1.361-1.051.955.955,0,0,1-.208-.888l.036-.12-.107-.065a2.27,2.27,0,0,1,0-4.151l.107-.065-.036-.12a.955.955,0,0,1,.208-.888,4.164,4.164,0,0,1,1.361-1.052,2.265,2.265,0,0,0,.532-.349,1.994,1.994,0,0,0,.188-.229,1.876,1.876,0,0,0,.187.229A2.265,2.265,0,0,0,241.251,367.171Zm20.077,4.751v3.464H259.1v-3.464a.582.582,0,0,1-.025-.792c.345-.443.84-.581.981-.731a.549.549,0,0,0,.157-.248.555.555,0,0,0,.158.248c.141.15.636.288.981.731A.582.582,0,0,1,261.329,371.922Zm-5.221-.792c.345-.443.84-.581.981-.731a.549.549,0,0,0,.157-.248.556.556,0,0,0,.158.248c.141.15.636.288.981.731a.582.582,0,0,1-.025.792v3.464h-2.226v-3.464A.582.582,0,0,1,256.108,371.13Zm6.018,4.256v-3.464a.582.582,0,0,1-.026-.792c.345-.443.84-.581.981-.731a.174.174,0,1,1,.314,0c.141.15.637.288.981.731a.582.582,0,0,1-.025.792v3.464Zm17.453-7.4a.093.093,0,0,1-.081.092l-.014,0-.014,0a.093.093,0,0,1-.081-.092.095.095,0,1,1,.189,0Zm-.095,12.961a.1.1,0,0,1-.095-.1.094.094,0,0,1,.081-.092l.014,0,.014,0a.094.094,0,0,1,.081.092A.1.1,0,0,1,279.484,380.946Zm.878-11.651a5.063,5.063,0,0,1,1.659,1.283,1.161,1.161,0,0,1,.255,1.083l-.043.146.131.078a2.77,2.77,0,0,1,0,5.064l-.131.078.043.146a1.161,1.161,0,0,1-.255,1.083,5.062,5.062,0,0,1-1.659,1.283,2.767,2.767,0,0,0-.649.426,2.366,2.366,0,0,0-.229.28,2.364,2.364,0,0,0-.229-.28,2.781,2.781,0,0,0-.649-.426,5.063,5.063,0,0,1-1.659-1.283,1.162,1.162,0,0,1-.255-1.082l.044-.146-.131-.079a2.769,2.769,0,0,1,0-5.064l.131-.078-.044-.147a1.162,1.162,0,0,1,.255-1.082,5.064,5.064,0,0,1,1.659-1.283,2.779,2.779,0,0,0,.649-.426,2.369,2.369,0,0,0,.229-.28,2.371,2.371,0,0,0,.229.28A2.765,2.765,0,0,0,280.362,369.3Z" transform="translate(-207.257 -335.915)" fill="#e2ba64"/><path d="M311.042,433.007l-1.149-1.081a7.089,7.089,0,0,0-8.96-.618l-32.974,23.4-2.97,1.9-2.97-1.9-33.2-23.562a6.747,6.747,0,0,0-8.527.588l-1.353,1.273,42.237,26.044-23.119,14.8h6.752L264.989,461.4l20.183,12.445h6.752l-23.119-14.8Z" transform="translate(-212.02 -374.249)" fill="#185285"/><path d="M239.456,425.794l-.492.321,34.194,24.626-30.881-24.807A2.407,2.407,0,0,0,239.456,425.794Z" transform="translate(-220.189 -372.415)" fill="#185285"/><path d="M248.674,424.7l25.45,20.371-22.448-20.2A2.407,2.407,0,0,0,248.674,424.7Z" transform="translate(-224.149 -371.948)" fill="#185285"/><path d="M330.412,425.794a2.407,2.407,0,0,0-2.821.14l-30.88,24.807,34.194-24.626Z" transform="translate(-243.742 -372.415)" fill="#185285"/><path d="M327.217,424.7a2.407,2.407,0,0,0-3,.174l-22.448,20.2Z" transform="translate(-245.804 -371.948)" fill="#185285"/><path d="M315.859,385.541l.818.675.039-1.06.895-.569-1-.364-.264-1.027-.654.835-1.058-.066.591.88-.39.986Z" transform="translate(-251.053 -355.2)" fill="#e2ba64"/><path d="M307.542,410.494l.466.4.032-.612.522-.321-.572-.219-.144-.6-.385.476-.611-.047.334.513-.234.566Z" transform="translate(-247.877 -365.783)" fill="#e2ba64"/><path d="M276.522,395.255l-1.876.493,1.532,1.19-.111,1.936,1.6-1.09,1.807.7-.54-1.863,1.228-1.5-1.939-.062-1.048-1.632Z" transform="translate(-234.743 -359.374)" fill="#e2ba64"/><path d="M280.792,376.6l.466.4.032-.612.522-.321-.572-.219-.144-.6-.385.476-.611-.047.334.513-.234.566Z" transform="translate(-236.967 -351.959)" fill="#e2ba64"/><path d="M305.235,365.637l.466.4.032-.612.522-.321-.572-.219-.144-.6-.385.476-.611-.047.334.513-.234.566Z" transform="translate(-246.936 -347.487)" fill="#e2ba64"/></g></svg>