<svg width="23" height="17" viewBox="0 0 23 17" fill="none" xmlns="http://www.w3.org/2000/svg">
<path d="M5.80156 5.97455C8.4508 5.97455 10.5984 8.31507 10.5984 11.2023C10.5984 14.0895 8.4508 16.43 5.80156 16.43C3.15231 16.43 1.00469 14.0895 1.00469 11.2023L0.982758 10.4555C0.982758 4.68106 5.27801 0 10.5765 0V2.98727C8.74547 2.98727 7.02545 3.76396 5.73029 5.17396C5.48085 5.4458 5.25334 5.73407 5.04913 6.03728C5.29446 5.99546 5.54527 5.97305 5.80019 5.97305L5.80156 5.97455ZM18.1364 5.97455C20.7856 5.97455 22.9332 8.31507 22.9332 11.2023C22.9332 14.0895 20.7856 16.43 18.1364 16.43C15.4871 16.43 13.3395 14.0895 13.3395 11.2023L13.3176 10.4555C13.3176 4.68106 17.6128 0 22.9113 0V2.98727C21.0803 2.98727 19.3603 3.76396 18.0651 5.17396C17.8157 5.4458 17.5882 5.73407 17.3839 6.03728C17.6293 5.99546 17.8801 5.97305 18.1364 5.97305V5.97455Z" fill="#3BAC62"/>
</svg>
